<?xml version="1.0" encoding="UTF-8"?>
<svg id="Capa_1" data-name="Capa 1" xmlns="http://www.w3.org/2000/svg" viewBox="0 0 1080 1080">
  <defs>
    <style>
      .cls-1 {
        fill: #fff;
      }
    </style>
  </defs>
  <path class="cls-1" d="M540,18.93C250.28,18.93,15.4,252.22,15.4,540s234.88,521.07,524.6,521.07,524.6-233.29,524.6-521.07S829.73,18.93,540,18.93ZM585.42,580.68l-.24,132.89,14.58.03c19.8.04,35.96,16.15,35.93,35.82-.04,19.67-16.27,35.72-36.06,35.69l-14.58-.03-.09,47.89,40.01.07c19.79.04,35.96,16.16,35.93,35.82-.04,19.66-16.26,35.72-36.06,35.69l-40.13-.07c-.69,27.03-23.09,48.94-50.45,48.89-27.76-.05-50.44-22.65-50.38-50.23l.59-327.58c-82.04-25.54-141.57-101.62-141.57-191.53,0-110.84,90.46-200.69,202.05-200.69s202.05,89.85,202.05,200.69c0,97.08-69.39,178.04-161.58,196.66Z"/>
</svg>